<svg width="25" height="25" viewBox="0 0 25 25" fill="none" xmlns="http://www.w3.org/2000/svg">
<path d="M14.5833 0C17.4598 0 19.7917 2.33185 19.7917 5.20833V17.7083C19.7917 21.7354 16.5271 25 12.5 25C8.47292 25 5.20833 21.7354 5.20833 17.7083V9.375H7.29166V17.7083C7.29166 20.5848 9.62352 22.9167 12.5 22.9167C15.3765 22.9167 17.7083 20.5848 17.7083 17.7083V5.20833C17.7083 3.48245 16.3093 2.08333 14.5833 2.08333C12.8574 2.08333 11.4583 3.48245 11.4583 5.20833V17.7083C11.4583 18.2836 11.9247 18.75 12.5 18.75C13.0753 18.75 13.5417 18.2836 13.5417 17.7083V6.25H15.625V17.7083C15.625 19.4343 14.2259 20.8333 12.5 20.8333C10.7741 20.8333 9.37499 19.4343 9.37499 17.7083V5.20833C9.37499 2.33185 11.7069 0 14.5833 0Z" fill="#D9D9D9"/>
</svg>
