<svg width="234" height="308" viewBox="0 0 234 308" fill="none" xmlns="http://www.w3.org/2000/svg">
<path fill-rule="evenodd" clip-rule="evenodd" d="M8.962 2.5C5.702 4.144 3.894 5.952 2.25 9.212L0 13.674V144.25V274.826L2.25 279.288C3.875 282.511 5.75 284.402 9 286.099L13.5 288.448L113.661 287.846L213.822 287.244L216.774 294.997C218.397 299.261 220.042 303.762 220.43 305C220.818 306.238 221.479 307.25 221.9 307.25C222.321 307.25 226.5 299.997 229 294.5C231.5 289.003 234 283.5 234 280.5V274.31V143.992V13.674L231.75 9.212C230.106 5.952 228.298 4.144 225.038 2.5L220.576 0.25H117H13.424L8.962 2.5Z" fill="black"/>
</svg>
