<svg width="32" height="32" viewBox="0 0 32 32" fill="none" xmlns="http://www.w3.org/2000/svg">
<path d="M21.3333 17.3334H18.6667C18.6667 18.8062 17.4728 20 16 20C14.5272 20 13.3333 18.8062 13.3333 17.3334H10.6667C10.6667 20.2788 13.0545 22.6667 16 22.6667C18.9455 22.6667 21.3333 20.2788 21.3333 17.3334Z" fill="#D9D9D9"/>
<path d="M13.3333 13.3333C13.3333 14.0697 12.7364 14.6667 12 14.6667C11.2636 14.6667 10.6667 14.0697 10.6667 13.3333C10.6667 12.5969 11.2636 12 12 12C12.7364 12 13.3333 12.5969 13.3333 13.3333Z" fill="#D9D9D9"/>
<path d="M20 14.6667C20.7364 14.6667 21.3333 14.0697 21.3333 13.3333C21.3333 12.5969 20.7364 12 20 12C19.2636 12 18.6667 12.5969 18.6667 13.3333C18.6667 14.0697 19.2636 14.6667 20 14.6667Z" fill="#D9D9D9"/>
<path fill-rule="evenodd" clip-rule="evenodd" d="M29.3333 16C29.3333 23.3637 23.3637 29.3333 16 29.3333C8.6362 29.3333 2.66667 23.3637 2.66667 16C2.66667 8.63616 8.6362 2.66663 16 2.66663C23.3637 2.66663 29.3333 8.63616 29.3333 16ZM26.6667 16C26.6667 21.891 21.8911 26.6666 16 26.6666C10.109 26.6666 5.33334 21.891 5.33334 16C5.33334 10.1089 10.109 5.33329 16 5.33329C21.8911 5.33329 26.6667 10.1089 26.6667 16Z" fill="#D9D9D9"/>
</svg>
