<svg width="728" height="235" viewBox="0 0 728 235" fill="none" xmlns="http://www.w3.org/2000/svg">
<path d="M253.757 134.248V116.072H270.525C273.768 116.072 276.541 115.432 278.845 114.152C281.235 112.872 283.069 111.08 284.349 108.776C285.629 106.387 286.269 103.656 286.269 100.584C286.269 97.3413 285.629 94.568 284.349 92.264C283.069 89.8747 281.235 88.0827 278.845 86.888C276.541 85.608 273.768 84.968 270.525 84.968H253.757V66.792H269.501C277.437 66.792 284.221 68.1147 289.853 70.76C295.571 73.4053 299.923 77.16 302.909 82.024C305.981 86.888 307.517 92.7333 307.517 99.56V101.608C307.517 108.264 305.981 114.067 302.909 119.016C299.923 123.88 295.571 127.635 289.853 130.28C284.221 132.925 277.437 134.248 269.501 134.248H253.757ZM235.325 161V66.792H256.317V161H235.325ZM323.501 161V90.856H343.981V161H323.501ZM314.157 105.96V90.856H343.981V105.96H314.157ZM331.437 83.944C327.597 83.944 324.739 82.9627 322.861 81C321.069 78.952 320.173 76.392 320.173 73.32C320.173 70.1627 321.069 67.6027 322.861 65.64C324.739 63.592 327.597 62.568 331.437 62.568C335.277 62.568 338.093 63.592 339.885 65.64C341.763 67.6027 342.701 70.1627 342.701 73.32C342.701 76.392 341.763 78.952 339.885 81C338.093 82.9627 335.277 83.944 331.437 83.944ZM390.571 188.904C387.158 188.904 383.659 188.776 380.075 188.52C376.491 188.264 373.206 187.923 370.219 187.496V170.216C373.206 170.643 376.491 170.984 380.075 171.24C383.745 171.581 387.073 171.752 390.059 171.752C395.606 171.752 400.086 171.112 403.499 169.832C406.998 168.552 409.558 166.589 411.179 163.944C412.801 161.384 413.611 158.056 413.611 153.96V140.008L417.323 131.816C417.153 138.045 415.915 143.379 413.611 147.816C411.393 152.253 408.278 155.667 404.267 158.056C400.257 160.36 395.478 161.512 389.931 161.512C385.153 161.512 380.801 160.659 376.875 158.952C373.035 157.16 369.75 154.685 367.019 151.528C364.289 148.371 362.198 144.701 360.747 140.52C359.297 136.253 358.571 131.645 358.571 126.696V123.752C358.571 118.803 359.339 114.195 360.875 109.928C362.411 105.661 364.63 101.949 367.531 98.792C370.433 95.6347 373.889 93.2027 377.899 91.496C381.91 89.704 386.347 88.808 391.211 88.808C396.843 88.808 401.707 90.0453 405.803 92.52C409.985 94.9947 413.27 98.6213 415.659 103.4C418.049 108.179 419.329 113.939 419.499 120.68L416.683 121.448V90.856H432.939V152.68C432.939 161.299 431.403 168.253 428.331 173.544C425.259 178.835 420.566 182.717 414.251 185.192C408.022 187.667 400.129 188.904 390.571 188.904ZM396.331 144.232C399.489 144.232 402.347 143.549 404.907 142.184C407.467 140.733 409.473 138.685 410.923 136.04C412.459 133.395 413.227 130.195 413.227 126.44V122.728C413.227 119.059 412.417 115.987 410.795 113.512C409.259 110.952 407.211 109.032 404.651 107.752C402.091 106.387 399.361 105.704 396.459 105.704C393.046 105.704 390.017 106.515 387.371 108.136C384.726 109.757 382.678 112.019 381.227 114.92C379.777 117.821 379.051 121.235 379.051 125.16C379.051 129.171 379.777 132.627 381.227 135.528C382.763 138.344 384.811 140.52 387.371 142.056C390.017 143.507 393.003 144.232 396.331 144.232ZM482.801 163.432C476.828 163.432 471.537 162.408 466.929 160.36C462.407 158.312 458.609 155.581 455.537 152.168C452.551 148.669 450.247 144.787 448.625 140.52C447.089 136.168 446.321 131.731 446.321 127.208V124.648C446.321 119.955 447.089 115.475 448.625 111.208C450.247 106.856 452.551 102.973 455.537 99.56C458.524 96.1467 462.236 93.4587 466.673 91.496C471.196 89.448 476.316 88.424 482.033 88.424C489.543 88.424 495.857 90.1307 500.977 93.544C506.183 96.872 510.151 101.267 512.881 106.728C515.612 112.104 516.977 117.992 516.977 124.392V131.304H454.897V119.656H504.561L497.905 125.032C497.905 120.851 497.308 117.267 496.113 114.28C494.919 111.293 493.127 109.032 490.737 107.496C488.433 105.875 485.532 105.064 482.033 105.064C478.449 105.064 475.42 105.875 472.945 107.496C470.471 109.117 468.593 111.507 467.313 114.664C466.033 117.736 465.393 121.533 465.393 126.056C465.393 130.237 465.991 133.907 467.185 137.064C468.38 140.136 470.257 142.525 472.817 144.232C475.377 145.939 478.705 146.792 482.801 146.792C486.556 146.792 489.628 146.067 492.017 144.616C494.407 143.165 496.028 141.373 496.881 139.24H515.697C514.673 143.933 512.668 148.115 509.681 151.784C506.695 155.453 502.94 158.312 498.417 160.36C493.895 162.408 488.689 163.432 482.801 163.432ZM564.724 163.432C558.58 163.432 553.119 162.493 548.34 160.616C543.562 158.653 539.508 156.008 536.18 152.68C532.938 149.352 530.463 145.555 528.756 141.288C527.05 136.936 526.196 132.371 526.196 127.592V124.648C526.196 119.784 527.05 115.176 528.756 110.824C530.548 106.387 533.108 102.504 536.436 99.176C539.85 95.848 543.946 93.2453 548.724 91.368C553.503 89.4053 558.836 88.424 564.724 88.424C570.783 88.424 576.159 89.4053 580.852 91.368C585.631 93.2453 589.684 95.848 593.012 99.176C596.34 102.504 598.9 106.387 600.692 110.824C602.484 115.176 603.38 119.784 603.38 124.648V127.592C603.38 132.371 602.527 136.936 600.82 141.288C599.114 145.555 596.596 149.352 593.268 152.68C590.026 156.008 586.015 158.653 581.236 160.616C576.458 162.493 570.954 163.432 564.724 163.432ZM564.724 146.152C568.735 146.152 572.063 145.299 574.708 143.592C577.354 141.885 579.359 139.496 580.724 136.424C582.175 133.352 582.9 129.939 582.9 126.184C582.9 122.173 582.175 118.675 580.724 115.688C579.274 112.616 577.183 110.184 574.452 108.392C571.807 106.6 568.564 105.704 564.724 105.704C560.97 105.704 557.727 106.6 554.996 108.392C552.266 110.184 550.175 112.616 548.724 115.688C547.359 118.675 546.676 122.173 546.676 126.184C546.676 129.939 547.359 133.352 548.724 136.424C550.09 139.496 552.138 141.885 554.868 143.592C557.599 145.299 560.884 146.152 564.724 146.152ZM617.673 161V90.856H633.929V120.936H632.777C632.777 113.768 633.673 107.795 635.465 103.016C637.343 98.2373 640.159 94.6533 643.913 92.264C647.668 89.8747 652.233 88.68 657.609 88.68H658.505C666.697 88.68 672.927 91.368 677.193 96.744C681.545 102.035 683.721 110.099 683.721 120.936V161H663.241V119.784C663.241 116.029 662.132 112.957 659.913 110.568C657.695 108.179 654.708 106.984 650.953 106.984C647.113 106.984 643.999 108.221 641.609 110.696C639.305 113.085 638.153 116.243 638.153 120.168V161H617.673Z" fill="#543EE1"/>
<path fill-rule="evenodd" clip-rule="evenodd" d="M173.949 61.9079C195.299 81.4128 195.553 113.17 174.516 132.839C158.984 147.362 136.187 151.234 116.727 144.416L97.0375 205.937L82.6433 107.241C79.2335 91.4658 84.0696 74.4816 97.1991 62.2057C118.236 42.5364 152.598 42.403 173.949 61.9079ZM153.456 125.219C169.903 116.341 175.407 96.7989 165.748 81.57C156.089 66.3412 134.925 61.1927 118.478 70.0705C102.03 78.9483 96.527 98.4906 106.186 113.719C115.845 128.948 137.008 134.097 153.456 125.219Z" fill="#543EE1"/>
</svg>
