<svg width="1059" height="1027" viewBox="0 0 1059 1027" fill="none" xmlns="http://www.w3.org/2000/svg">
<path fill-rule="evenodd" clip-rule="evenodd" d="M791.583 599.315C904.849 486.158 902.753 303.994 786.9 192.441C671.048 80.8881 485.31 82.1885 372.043 195.346C302.706 264.616 276.6 359.745 293.356 448.706L374.011 1018.23L395.739 394.303C395.775 392.242 395.847 390.183 395.954 388.128L396.217 380.574L396.507 380.574C401.833 324.135 433.731 271.013 487.264 240.114C575.959 188.92 690.457 218.121 743.002 305.336C795.547 392.551 766.241 504.754 677.545 555.948C640.98 577.053 600.03 584.494 560.844 579.841L560.844 684.223C643.863 690.355 728.841 661.996 791.583 599.315Z" fill="#543EE1"/>
<path d="M477.386 1018.14L560.732 580.89L577.444 580.897L654.318 577.595L477.386 1018.14Z" fill="#543EE1"/>
</svg>
