<svg width="650" height="161" viewBox="0 0 650 161" fill="none" xmlns="http://www.w3.org/2000/svg">
<path d="M176.928 97.2481V79.0721H193.696C196.939 79.0721 199.712 78.4321 202.016 77.1521C204.405 75.8721 206.24 74.0801 207.52 71.7761C208.8 69.3867 209.44 66.6561 209.44 63.5841C209.44 60.3414 208.8 57.5681 207.52 55.2641C206.24 52.8747 204.405 51.0827 202.016 49.8881C199.712 48.6081 196.939 47.9681 193.696 47.9681H176.928V29.7921H192.672C200.608 29.7921 207.392 31.1147 213.024 33.7601C218.741 36.4054 223.093 40.1601 226.08 45.0241C229.152 49.8881 230.688 55.7334 230.688 62.5601V64.6081C230.688 71.2641 229.152 77.0667 226.08 82.0161C223.093 86.8801 218.741 90.6347 213.024 93.2801C207.392 95.9254 200.608 97.2481 192.672 97.2481H176.928ZM158.496 124V29.7921H179.488V124H158.496ZM246.672 124V53.8561H267.152V124H246.672ZM237.328 68.9601V53.8561H267.152V68.9601H237.328ZM254.608 46.9441C250.768 46.9441 247.909 45.9627 246.032 44.0001C244.24 41.9521 243.344 39.3921 243.344 36.3201C243.344 33.1627 244.24 30.6027 246.032 28.6401C247.909 26.5921 250.768 25.5681 254.608 25.5681C258.448 25.5681 261.264 26.5921 263.056 28.6401C264.933 30.6027 265.872 33.1627 265.872 36.3201C265.872 39.3921 264.933 41.9521 263.056 44.0001C261.264 45.9627 258.448 46.9441 254.608 46.9441ZM313.742 151.904C310.329 151.904 306.83 151.776 303.246 151.52C299.662 151.264 296.377 150.923 293.39 150.496V133.216C296.377 133.643 299.662 133.984 303.246 134.24C306.915 134.581 310.243 134.752 313.23 134.752C318.777 134.752 323.257 134.112 326.67 132.832C330.169 131.552 332.729 129.589 334.35 126.944C335.971 124.384 336.782 121.056 336.782 116.96V103.008L340.494 94.8161C340.323 101.045 339.086 106.379 336.782 110.816C334.563 115.253 331.449 118.667 327.438 121.056C323.427 123.36 318.649 124.512 313.102 124.512C308.323 124.512 303.971 123.659 300.046 121.952C296.206 120.16 292.921 117.685 290.19 114.528C287.459 111.371 285.369 107.701 283.918 103.52C282.467 99.2534 281.742 94.6454 281.742 89.6961V86.7521C281.742 81.8027 282.51 77.1947 284.046 72.9281C285.582 68.6614 287.801 64.9494 290.702 61.7921C293.603 58.6347 297.059 56.2027 301.07 54.4961C305.081 52.7041 309.518 51.8081 314.382 51.8081C320.014 51.8081 324.878 53.0454 328.974 55.5201C333.155 57.9947 336.441 61.6214 338.83 66.4001C341.219 71.1787 342.499 76.9387 342.67 83.6801L339.854 84.4481V53.8561H356.11V115.68C356.11 124.299 354.574 131.253 351.502 136.544C348.43 141.835 343.737 145.717 337.422 148.192C331.193 150.667 323.299 151.904 313.742 151.904ZM319.502 107.232C322.659 107.232 325.518 106.549 328.078 105.184C330.638 103.733 332.643 101.685 334.094 99.0401C335.63 96.3947 336.398 93.1947 336.398 89.4401V85.7281C336.398 82.0587 335.587 78.9867 333.966 76.5121C332.43 73.9521 330.382 72.0321 327.822 70.7521C325.262 69.3867 322.531 68.7041 319.63 68.7041C316.217 68.7041 313.187 69.5147 310.542 71.1361C307.897 72.7574 305.849 75.0187 304.398 77.9201C302.947 80.8214 302.222 84.2347 302.222 88.1601C302.222 92.1707 302.947 95.6267 304.398 98.5281C305.934 101.344 307.982 103.52 310.542 105.056C313.187 106.507 316.174 107.232 319.502 107.232ZM405.972 126.432C399.999 126.432 394.708 125.408 390.1 123.36C385.577 121.312 381.78 118.581 378.708 115.168C375.721 111.669 373.417 107.787 371.796 103.52C370.26 99.1681 369.492 94.7307 369.492 90.2081V87.6481C369.492 82.9547 370.26 78.4747 371.796 74.2081C373.417 69.8561 375.721 65.9734 378.708 62.5601C381.695 59.1467 385.407 56.4587 389.844 54.4961C394.367 52.4481 399.487 51.4241 405.204 51.4241C412.713 51.4241 419.028 53.1307 424.148 56.5441C429.353 59.8721 433.321 64.2667 436.052 69.7281C438.783 75.1041 440.148 80.9921 440.148 87.3921V94.3041H378.068V82.6561H427.732L421.076 88.0321C421.076 83.8507 420.479 80.2667 419.284 77.2801C418.089 74.2934 416.297 72.0321 413.908 70.4961C411.604 68.8747 408.703 68.0641 405.204 68.0641C401.62 68.0641 398.591 68.8747 396.116 70.4961C393.641 72.1174 391.764 74.5067 390.484 77.6641C389.204 80.7361 388.564 84.5334 388.564 89.0561C388.564 93.2374 389.161 96.9067 390.356 100.064C391.551 103.136 393.428 105.525 395.988 107.232C398.548 108.939 401.876 109.792 405.972 109.792C409.727 109.792 412.799 109.067 415.188 107.616C417.577 106.165 419.199 104.373 420.052 102.24H438.868C437.844 106.933 435.839 111.115 432.852 114.784C429.865 118.453 426.111 121.312 421.588 123.36C417.065 125.408 411.86 126.432 405.972 126.432ZM487.895 126.432C481.751 126.432 476.29 125.493 471.511 123.616C466.732 121.653 462.679 119.008 459.351 115.68C456.108 112.352 453.634 108.555 451.927 104.288C450.22 99.9361 449.367 95.3707 449.367 90.5921V87.6481C449.367 82.7841 450.22 78.1761 451.927 73.8241C453.719 69.3867 456.279 65.5041 459.607 62.1761C463.02 58.8481 467.116 56.2454 471.895 54.3681C476.674 52.4054 482.007 51.4241 487.895 51.4241C493.954 51.4241 499.33 52.4054 504.023 54.3681C508.802 56.2454 512.855 58.8481 516.183 62.1761C519.511 65.5041 522.071 69.3867 523.863 73.8241C525.655 78.1761 526.551 82.7841 526.551 87.6481V90.5921C526.551 95.3707 525.698 99.9361 523.991 104.288C522.284 108.555 519.767 112.352 516.439 115.68C513.196 119.008 509.186 121.653 504.407 123.616C499.628 125.493 494.124 126.432 487.895 126.432ZM487.895 109.152C491.906 109.152 495.234 108.299 497.879 106.592C500.524 104.885 502.53 102.496 503.895 99.4241C505.346 96.3521 506.071 92.9387 506.071 89.1841C506.071 85.1734 505.346 81.6747 503.895 78.6881C502.444 75.6161 500.354 73.1841 497.623 71.3921C494.978 69.6001 491.735 68.7041 487.895 68.7041C484.14 68.7041 480.898 69.6001 478.167 71.3921C475.436 73.1841 473.346 75.6161 471.895 78.6881C470.53 81.6747 469.847 85.1734 469.847 89.1841C469.847 92.9387 470.53 96.3521 471.895 99.4241C473.26 102.496 475.308 104.885 478.039 106.592C480.77 108.299 484.055 109.152 487.895 109.152ZM540.844 124V53.8561H557.1V83.9361H555.948C555.948 76.7681 556.844 70.7947 558.636 66.0161C560.513 61.2374 563.329 57.6534 567.084 55.2641C570.839 52.8747 575.404 51.6801 580.78 51.6801H581.676C589.868 51.6801 596.097 54.3681 600.364 59.7441C604.716 65.0347 606.892 73.0987 606.892 83.9361V124H586.412V82.7841C586.412 79.0294 585.303 75.9574 583.084 73.5681C580.865 71.1787 577.879 69.9841 574.124 69.9841C570.284 69.9841 567.169 71.2214 564.78 73.6961C562.476 76.0854 561.324 79.2427 561.324 83.1681V124H540.844Z" fill="#543EE1"/>
<path fill-rule="evenodd" clip-rule="evenodd" d="M118.542 92.7456C135.515 75.7885 135.216 48.505 117.874 31.8062C100.532 15.1074 72.7129 15.3168 55.7392 32.2739C45.145 42.8577 41.2796 57.4643 44.0873 71.0092L56.0125 155.642L59.2845 63.6129C58.9011 53.8728 63.8364 44.2567 72.9892 38.9724C86.2789 31.2995 103.428 35.6645 111.292 48.7218C119.157 61.7791 114.758 78.5842 101.469 86.2571C95.9943 89.4177 89.8651 90.5358 83.9997 89.845L83.9997 105.483C96.4258 106.387 109.145 102.133 118.542 92.7456Z" fill="#543EE1"/>
<path d="M61.9999 155.5L84.0002 89.5L97.9998 89.5002L61.9999 155.5Z" fill="#543EE1"/>
</svg>
