<svg width="35" height="35" viewBox="0 0 35 35" fill="none" xmlns="http://www.w3.org/2000/svg">
<g clip-path="url(#clip0_1_7)">
<path d="M28.7569 22.3234C32.3207 17.7464 31.9987 11.1246 27.7913 6.91708C23.2352 2.36097 15.8482 2.36097 11.2921 6.91708C6.73597 11.4732 6.73597 18.8601 11.2921 23.4162C15.4996 27.6238 22.1215 27.9457 26.6984 24.382C26.7181 24.4043 26.7387 24.4261 26.76 24.4474L32.9472 30.6346C33.5167 31.2042 34.4401 31.2042 35.0096 30.6346C35.5791 30.0651 35.5791 29.1418 35.0096 28.5722L28.8225 22.3851C28.8011 22.3638 28.7792 22.3432 28.7569 22.3234ZM25.7288 8.97949C29.146 12.3966 29.146 17.9367 25.7288 21.3539C22.3118 24.7709 16.7716 24.7709 13.3545 21.3539C9.93739 17.9367 9.93739 12.3966 13.3545 8.97949C16.7716 5.5624 22.3118 5.5624 25.7288 8.97949Z" fill="#E0E0E0"/>
<path d="M28.7569 22.3234C32.3207 17.7464 31.9987 11.1246 27.7913 6.91708C23.2352 2.36097 15.8482 2.36097 11.2921 6.91708C6.73597 11.4732 6.73597 18.8601 11.2921 23.4162C15.4996 27.6238 22.1215 27.9457 26.6984 24.382C26.7181 24.4043 26.7387 24.4261 26.76 24.4474L32.9472 30.6346C33.5167 31.2042 34.4401 31.2042 35.0096 30.6346C35.5791 30.0651 35.5791 29.1418 35.0096 28.5722L28.8225 22.3851C28.8011 22.3638 28.7792 22.3432 28.7569 22.3234ZM25.7288 8.97949C29.146 12.3966 29.146 17.9367 25.7288 21.3539C22.3118 24.7709 16.7716 24.7709 13.3545 21.3539C9.93739 17.9367 9.93739 12.3966 13.3545 8.97949C16.7716 5.5624 22.3118 5.5624 25.7288 8.97949Z" stroke="#E0E0E0"/>
</g>
<defs>
<clipPath id="clip0_1_7">
<rect width="35" height="35" fill="white"/>
</clipPath>
</defs>
</svg>
